<?xml version="1.0" encoding="utf-8"?>
<!-- Generator: Adobe Illustrator 28.3.0, SVG Export Plug-In . SVG Version: 6.00 Build 0)  -->
<svg version="1.1" id="Layer_2_00000033359644135948598070000000420134064475332277_"
	 xmlns="http://www.w3.org/2000/svg" xmlns:xlink="http://www.w3.org/1999/xlink" x="0px" y="0px" viewBox="0 0 2000 2000"
	 style="enable-background:new 0 0 2000 2000;" xml:space="preserve">
<style type="text/css">
	.st0{fill:#54DBBC;}
</style>
<g id="Layer_1-2">
	<g>
		<ellipse class="st0" cx="1039.6" cy="816.8" rx="835.4" ry="691.8"/>
		<path d="M791.2,1773c101-35.9,192.1-87.8,275-154.7c6.8-5.5,12.7-12.3,19.9-17.1c19.4-13.1,39-12.4,54.8,5.6
			c15.8,18.1,13.3,38-1.1,56.2c-4.2,5.3-9.3,10.1-14.7,14.1c-102.8,75.2-208.3,146.3-330.3,184.3c-40.4,12.6-85.2,11.7-128.2,13.5
			c-24.1,1.1-46.2-9.5-53.2-36.8c-7.3-28.1,6.8-47,29-61.4c18.7-12.1,37.3-24.4,55.7-37c48.2-32.9,73.4-81.2,88.8-137.2
			c-3.7-1.7-6.2-4-8.4-3.8c-137.5,13.7-252.5-45.5-359.3-122.4c-171.6-123.3-259.1-297.9-286.1-508.1
			c-12.7-98.7-9.9-196.6,7.3-293.6c21.2-119.1,96.7-205,185.7-275.8c122.1-97.2,260.1-167.2,412.9-196.2
			c161.1-30.5,322.7-24.4,478.8,32.5c85,31,173.2,58.8,250.4,104.9c78,46.5,155,104.3,213,174c85.8,103,146.6,223.6,143.8,366.9
			c-1.6,81.5,1.6,162.6-18.3,243.2c-41.3,166.7-148.5,274.4-289.1,357.5c-83.5,49.3-173.5,74.1-266.1,93.3
			c-26.3,5.5-48.1-8.8-54-32.3c-6.4-25.6,8.4-51.5,36.1-58c18.6-4.4,38.2-3.6,57.3-6.2c105.3-14.1,190.1-72.8,273.1-133.8
			c122.4-89.9,171.3-217.8,176.8-366.9c0.7-18.6,0.2-37.4,0.4-56.1c2.4-157.5-52.3-289.2-169.4-393.1
			c-235.8-209.2-511.1-295.2-816.8-243.7c-194.1,32.7-366.3,125.4-488.4,294.1c-33.1,45.6-50.6,96.2-56.8,152.3
			c-17.2,156.8-2.1,309.2,67.7,451.3c87.2,177.6,228.4,288.7,419.2,329.6c31.7,6.8,67.1,1,100-4.1c68-10.4,99.5,26.8,76.7,93.2
			C852.5,1661.8,835.1,1723.5,791.2,1773L791.2,1773z"/>
	</g>
</g>
</svg>
